#!OML:ASF E:\acrobat2\Project_11_07_03\Capture day 1\Session 1\Acrobat.ASF
:FULLY-SPECIFIED
:DEGREES
74
root 8.61186 17.9835 -27.6847 2.33514 -86.3783 4.71434
lowerback -5.82707 1.04096 1.09464
upperback -4.89716 1.20023 -1.44536
thorax -1.72375 0.493225 -2.04804
lowerneck 0.517913 -2.34725 -0.839071
upperneck -5.37066 -3.07517 2.50315
head -1.70178 -1.58464 0.971936
rclavicle -6.65929e-015 1.47101e-014
rhumerus -6.27619 -31.9671 -0.448527
rradius 19.9148
rwrist 22.6162
rhand -6.32821 -44.4751
rfingers 7.12502
rthumb 19.5168 -73.5156
lclavicle -6.65929e-015 1.47101e-014
lhumerus 0.0835516 7.8953 -0.775657
lradius 20.4331
lwrist 7.87297
lhand -13.7654 -7.51973
lfingers 7.12502
lthumb 12.3553 22.0952
rfemur 6.64893 18.8178 11.2628
rtibia -4.04346
rfoot -30.3444 -31.1351
rtoes 9.04627
lfemur 3.94542 -5.41766 -6.19026
ltibia -2.40293
lfoot -22.8198 8.02508
ltoes 26.5199
75
root 8.6042 17.9838 -27.6847 2.2959 -86.3308 4.86513
lowerback -5.9537 1.02202 1.07944
upperback -4.97685 1.16965 -1.46698
thorax -1.73725 0.475276 -2.06198
lowerneck 0.355111 -2.4128 -0.778554
upperneck -5.18309 -3.16762 2.39244
head -1.61372 -1.62738 0.922367
rclavicle -3.72721e-016 -1.19271e-014
rhumerus -5.59456 -39.3482 -1.28167
rradius 19.0925
rwrist 30.2854
rhand -5.97758 -43.3184
rfingers 7.12502
rthumb 19.8539 -72.3243
lclavicle -3.72721e-016 -1.19271e-014
lhumerus 0.291439 8.52915 -0.657598
lradius 20.3625
lwrist 7.25637
lhand -13.4365 -7.1558
lfingers 7.12502
lthumb 12.6724 22.4397
rfemur 6.55627 18.6366 11.2034
rtibia -4.09978
rfoot -29.8925 -31.3582
rtoes 8.03234
lfemur 3.73615 -4.83138 -6.07
ltibia -2.23335
lfoot -22.3789 7.72263
ltoes 26.2954
76
root 8.59603 17.984 -27.6839 3.71413 -86.3109 3.57519
lowerback -6.04184 0.968937 1.04181
upperback -5.11713 1.09384 -1.36622
thorax -1.83944 0.435404 -1.9405
lowerneck 0.252696 -2.41973 -0.740993
upperneck -4.97373 -3.18392 2.22169
head -1.53153 -1.63055 0.857826
rclavicle 1.963e-015 3.97569e-015
rhumerus -7.00166 -25.3652 -0.154096
rradius 21.0645
rwrist 16.8144
rhand -6.15704 -45.913
rfingers 7.12502
rthumb 19.6814 -74.9367
lclavicle 1.963e-015 3.97569e-015
lhumerus 0.28935 9.126 -0.507836
lradius 20.2985
lwrist 6.557
lhand -13.2524 -7.19417
lfingers 7.12502
lthumb 12.8499 22.3903
rfemur 6.43135 18.5006 11.2437
rtibia -4.13209
rfoot -29.5684 -31.489
rtoes 7.28847
lfemur 3.6315 -4.93794 -5.98357
ltibia -2.26294
lfoot -22.4363 7.95077
ltoes 25.1123
77
root 8.58933 17.9854 -27.6838 5.30793 -86.2661 2.03103
lowerback -6.04573 0.90978 0.995873
upperback -5.22586 1.01357 -1.23369
thorax -1.9562 0.395303 -1.78266
lowerneck 0.191061 -2.3884 -0.851226
upperneck -4.78549 -3.14498 2.20233
head -1.46028 -1.60688 0.865963
rclavicle -1.68967e-015 7.95139e-016
rhumerus -6.51233 -27.5916 -0.44973
rradius 20.3922
rwrist 19.363
rhand -6.11049 -45.2187
rfingers 7.12502
rthumb 19.7261 -74.2378
lclavicle -1.68967e-015 7.95139e-016
lhumerus 0.198704 9.26363 -0.436261
lradius 20.3381
lwrist 6.48248
lhand -13.2764 -7.49087
lfingers 7.12502
lthumb 12.8267 22.095
rfemur 6.41967 18.4906 11.3606
rtibia -4.16638
rfoot -29.5951 -31.5448
rtoes 6.93934
lfemur 3.57527 -4.75469 -5.81241
ltibia -2.25907
lfoot -22.0305 8.52
ltoes 21.3965
78
root 8.58445 17.9867 -27.6838 6.56676 -86.2237 0.780862
lowerback -6.0494 0.878886 1.01045
upperback -5.27372 0.970775 -1.15318
thorax -2.00647 0.37341 -1.71011
lowerneck 0.00218554 -2.274 -0.885438
upperneck -4.65125 -2.99421 2.18231
head -1.3873 -1.52917 0.85861
rclavicle 6.68413e-015 1.19271e-015
rhumerus -6.36963 -28.3983 -0.580562
rradius 20.2178
rwrist 20.4539
rhand -5.99775 -44.8912
rfingers 7.12502
rthumb 19.8345 -73.8992
lclavicle 6.68413e-015 1.19271e-015
lhumerus 0.168996 9.081 -0.464532
lradius 20.4283
lwrist 6.93827
lhand -13.1491 -7.64808
lfingers 7.12502
lthumb 12.9494 21.9301
rfemur 6.45661 18.6066 11.5039
rtibia -4.17474
rfoot -29.9793 -31.4752
rtoes 8.04591
lfemur 3.56056 -4.47607 -5.64572
ltibia -2.25757
lfoot -21.6191 8.77809
ltoes 19.2746
79
root 8.57934 17.987 -27.6852 6.31097 -86.2414 1.05605
lowerback -6.09194 0.872774 0.958305
upperback -5.29791 0.962765 -1.15481
thorax -2.00902 0.370048 -1.68252
lowerneck -0.267203 -2.19864 -0.80169
upperneck -4.3872 -2.89379 2.19946
head -1.26005 -1.47798 0.840829
rclavicle -1.2101e-014 5.96354e-015
rhumerus -6.56172 -27.2348 -0.553733
rradius 20.4736
rwrist 19.503
rhand -6.00906 -45.1307
rfingers 7.12502
rthumb 19.8236 -74.1397
lclavicle -1.2101e-014 5.96354e-015
lhumerus 0.202118 8.53435 -0.613714
lradius 20.5495
lwrist 7.84062
lhand -13.205 -7.55984
lfingers 7.12502
lthumb 12.8956 22.0217
rfemur 6.48602 18.8492 11.5454
rtibia -4.18573
rfoot -30.5078 -31.3649
rtoes 10.0255
lfemur 3.599 -4.73359 -5.69837
ltibia -2.30564
lfoot -22.0363 8.28078
ltoes 23.0193
80
root 8.57341 17.9867 -27.6875 5.75856 -86.2743 1.609
lowerback -6.11655 0.883247 0.902568
upperback -5.31964 0.976744 -1.19801
thorax -2.01761 0.377087 -1.69502
lowerneck -0.488225 -2.15643 -0.614365
upperneck -4.10447 -2.83951 2.16151
head -1.13712 -1.45027 0.79005
rclavicle 6.90777e-015 -2.38542e-015
rhumerus -7.12666 -23.4815 -0.323173
rradius 21.098
rwrist 15.9139
rhand -6.31291 -45.7712
rfingers 7.12502
rthumb 19.5315 -74.8102
lclavicle 6.90777e-015 -2.38542e-015
lhumerus 0.244082 7.75271 -0.83713
lradius 20.7728
lwrist 9.18374
lhand -13.7145 -7.50105
lfingers 7.12502
lthumb 12.4044 22.1109
rfemur 6.5282 18.9897 11.5566
rtibia -4.20717
rfoot -30.7377 -31.4168
rtoes 10.2517
lfemur 3.73001 -5.37484 -5.85323
ltibia -2.46179
lfoot -22.8218 7.87709
ltoes 26.8728
81
root 8.56801 17.9865 -27.6887 6.23187 -86.2949 1.1313
lowerback -6.10404 0.88065 0.927002
upperback -5.36344 0.970288 -1.1987
thorax -2.06989 0.371655 -1.71028
lowerneck -0.566873 -2.12952 -0.566221
upperneck -3.93814 -2.80513 2.14023
head -1.07309 -1.43179 0.771879
rclavicle -1.70209e-014 1.43125e-014
rhumerus -6.93861 -25.5661 -0.587183
rradius 20.8672
rwrist 18.2015
rhand -6.28838 -45.3601
rfingers 7.12502
rthumb 19.5551 -74.3967
lclavicle -1.70209e-014 1.43125e-014
lhumerus 0.260243 7.73727 -0.906664
lradius 20.9505
lwrist 9.87595
lhand -14.1057 -7.53446
lfingers 7.12502
lthumb 12.0272 22.0999
rfemur 6.53259 18.9365 11.6107
rtibia -4.18899
rfoot -30.5459 -31.5269
rtoes 9.3763
lfemur 3.86986 -6.14257 -5.99753
ltibia -2.65146
lfoot -23.5295 8.22255
ltoes 27.1499
82
root 8.56325 17.9869 -27.6896 7.32777 -86.3067 0.0444436
lowerback -6.10425 0.858389 0.972872
upperback -5.4078 0.937359 -1.1517
thorax -2.11707 0.353213 -1.68937
lowerneck -0.580803 -2.1022 -0.63569
upperneck -3.84189 -2.76786 2.19551
head -1.03977 -1.41198 0.798932
rclavicle 7.95139e-016 -1.07344e-014
rhumerus -7.07627 -24.6926 -0.617968
rradius 21.2495
rwrist 17.4683
rhand -6.30692 -45.4422
rfingers 7.12502
rthumb 19.5373 -74.4806
lclavicle 7.95139e-016 -1.07344e-014
lhumerus 0.290894 8.5231 -0.809345
lradius 20.9895
lwrist 9.6447
lhand -14.1183 -7.42005
lfingers 7.12502
lthumb 12.015 22.2151
rfemur 6.49921 18.8185 11.6887
rtibia -4.14162
rfoot -30.3316 -31.5001
rtoes 9.36276
lfemur 3.91973 -6.53771 -6.01311
ltibia -2.72034
lfoot -23.8205 8.71986
ltoes 25.7651
83
root 8.55884 17.9862 -27.6907 8.0834 -86.2995 -0.711687
lowerback -6.11835 0.844927 1.00302
upperback -5.42741 0.917217 -1.14072
thorax -2.13009 0.341759 -1.69581
lowerneck -0.673245 -2.05603 -0.464159
upperneck -3.73317 -2.71054 2.05859
head -0.994686 -1.38276 0.725023
rclavicle -8.62228e-015 -7.7526e-015
rhumerus -5.29573 -40.2418 -2.19192
rradius 19.0149
rwrist 32.8742
rhand -6.00465 -42.4629
rfingers 7.12502
rthumb 19.8279 -71.4715
lclavicle -8.62228e-015 -7.7526e-015
lhumerus 0.471258 9.75501 -0.649963
lradius 20.9108
lwrist 8.88979
lhand -14.0423 -7.35918
lfingers 7.12502
lthumb 12.0884 22.2716
rfemur 6.49757 18.8306 11.7647
rtibia -4.10301
rfoot -30.3479 -31.5593
rtoes 9.19384
lfemur 3.95575 -6.70203 -5.96257
ltibia -2.76158
lfoot -24.0212 8.80968
ltoes 25.8833
84
root 8.5547 17.985 -27.6922 7.27741 -86.3007 0.0832112
lowerback -6.12373 0.848213 0.956246
upperback -5.43434 0.922077 -1.19363
thorax -2.13404 0.344288 -1.72388
lowerneck -0.685827 -2.07066 -0.342182
upperneck -3.63452 -2.73184 2.00455
head -0.963686 -1.39345 0.686883
rclavicle -3.23025e-016 3.57812e-015
rhumerus -6.68826 -28.8562 -1.07766
rradius 20.4796
rwrist 21.5112
rhand -6.26773 -44.3068
rfingers 7.12502
rthumb 19.575 -73.3413
lclavicle -3.23025e-016 3.57812e-015
lhumerus 0.756015 11.1568 -0.460119
lradius 20.8081
lwrist 8.04618
lhand -13.9473 -7.34086
lfingers 7.12502
lthumb 12.1799 22.2845
rfemur 6.53732 19.0554 11.7653
rtibia -4.07968
rfoot -30.5839 -31.7493
rtoes 8.85523
lfemur 4.00774 -6.91651 -6.05169
ltibia -2.80347
lfoot -24.357 8.57311
ltoes 27.5677
85
root 8.5505 17.9842 -27.6941 5.455 -86.3326 1.8854
lowerback -6.11538 0.84361 0.830185
upperback -5.43744 0.91994 -1.23632
thorax -2.14316 0.345985 -1.69736
lowerneck -0.816366 -2.03942 -0.293521
upperneck -3.43811 -2.69218 2.00572
head -0.881888 -1.37214 0.674851
rclavicle -2.45996e-015 1.66979e-014
rhumerus -6.93613 -26.326 -0.908237
rradius 20.751
rwrist 18.9502
rhand -6.4554 -44.7113
rfingers 7.12502
rthumb 19.3945 -73.7641
lclavicle -2.45996e-015 1.66979e-014
lhumerus 0.946803 12.2878 -0.307846
lradius 20.7488
lwrist 7.42312
lhand -13.8538 -7.265
lfingers 7.12502
lthumb 12.2701 22.355
rfemur 6.55364 19.0954 11.6408
rtibia -4.04278
rfoot -30.6427 -31.7391
rtoes 8.70479
lfemur 4.04849 -6.90181 -6.20615
ltibia -2.7955
lfoot -24.4327 8.38769
ltoes 28.3599
